<svg xmlns="http://www.w3.org/2000/svg" version="1.1" xmlns:xlink="http://www.w3.org/1999/xlink" xmlns:svgjs="http://svgjs.com/svgjs" width="1920" height="1080" preserveAspectRatio="none" viewBox="0 0 1920 1080"><g mask="url(&quot;#SvgjsMask1052&quot;)" fill="none"><rect width="1920" height="1080" x="0" y="0" fill="rgba(36, 42, 50, 1)"></rect><path d="M498.8203005958337 366.2684862447506L718.7290868292162 286.22823380218995 638.6888343866556 66.31944756880745 418.7800481532731 146.3597000113681z" fill="rgba(51, 142, 28, 0.4)" class="triangle-float3"></path><path d="M1792.045453290252 215.4556587147518L1977.3587211239053 95.11181546333333 1857.014877872487-90.20145237032006 1671.7016100388335 30.142390881098436z" fill="rgba(51, 142, 28, 0.4)" class="triangle-float3"></path><path d="M655.096,1022.437C727.444,1021.197,791.008,976.602,825.525,913.006C858.475,852.297,851.834,780.735,819.373,719.764C784.524,654.307,729.186,596.018,655.096,592.891C576.327,589.566,503.139,635.855,464.905,704.802C427.753,771.798,434.884,853.301,474.239,919.027C512.475,982.885,580.677,1023.713,655.096,1022.437" fill="rgba(51, 142, 28, 0.4)" class="triangle-float3"></path><path d="M903.688,881.313C980.177,880.172,1053.233,842.189,1089.437,774.801C1123.976,710.514,1104.903,635.623,1070.166,571.443C1033.194,503.134,981.239,435.961,903.688,431.616C819.948,426.924,742.442,477.625,701.425,550.782C661.274,622.395,665.234,710.458,708.088,780.488C749.124,847.548,825.078,882.485,903.688,881.313" fill="rgba(51, 142, 28, 0.4)" class="triangle-float3"></path><path d="M661.035256526479 905.521337561104L844.0764703721243 866.6147265021664 805.1698593131865 683.5735126565211 622.1286454675413 722.4801237154587z" fill="rgba(51, 142, 28, 0.4)" class="triangle-float2"></path><path d="M473.182,686.438C566.499,687.28,648.376,633.32,698.786,554.786C754.265,468.356,790.169,360.097,740.281,270.323C689.357,178.685,577.927,144.408,473.182,148.805C376.346,152.87,288.601,206.087,242.287,291.226C197.927,372.773,207.687,470.624,254.516,550.779C300.892,630.16,381.251,685.609,473.182,686.438" fill="rgba(51, 142, 28, 0.4)" class="triangle-float1"></path><path d="M1149.5538541292858 353.4104618390351L1073.8470843295897 572.6000683503204 1273.4806953522354 537.399276470769z" fill="rgba(51, 142, 28, 0.4)" class="triangle-float2"></path><path d="M1253.670702412014 750.2480666217567L1260.6601244200824 950.3989255459936 1460.8109833443193 943.409503537925 1453.8215613362509 743.2586446136881z" fill="rgba(51, 142, 28, 0.4)" class="triangle-float1"></path><path d="M417.32492549005207 1122.1627900211781L549.0329545317647 927.2984538028779 344.21340226233656 909.3790649108475z" fill="rgba(51, 142, 28, 0.4)" class="triangle-float2"></path><path d="M-6.941426043037765 799.0875447169176L202.60554217769283 758.5629501685265 82.68001643851784 615.6412740251153z" fill="rgba(51, 142, 28, 0.4)" class="triangle-float3"></path><path d="M1588.714,908.362C1621.65,908.478,1652.719,893.028,1670.095,865.049C1688.501,835.412,1692.711,798.288,1676.142,767.587C1658.765,735.389,1625.3,713.869,1588.714,714.252C1552.725,714.629,1521.382,737.652,1504.401,769.385C1488.358,799.364,1490.687,835.406,1508.323,864.477C1525.295,892.453,1555.992,908.246,1588.714,908.362" fill="rgba(51, 142, 28, 0.4)" class="triangle-float1"></path><path d="M1255.5910584467829 424.80310959137785L1572.3749511088383 357.46861457468583 1188.2565634300909 108.01921692932234z" fill="rgba(51, 142, 28, 0.4)" class="triangle-float3"></path></g><defs><mask id="SvgjsMask1052"><rect width="1920" height="1080" fill="#ffffff"></rect></mask><style>
            @keyframes float1 {
                0%{transform: translate(0, 0)}
                50%{transform: translate(-10px, 0)}
                100%{transform: translate(0, 0)}
            }

            .triangle-float1 {
                animation: float1 5s infinite;
            }

            @keyframes float2 {
                0%{transform: translate(0, 0)}
                50%{transform: translate(-5px, -5px)}
                100%{transform: translate(0, 0)}
            }

            .triangle-float2 {
                animation: float2 4s infinite;
            }

            @keyframes float3 {
                0%{transform: translate(0, 0)}
                50%{transform: translate(0, -10px)}
                100%{transform: translate(0, 0)}
            }

            .triangle-float3 {
                animation: float3 6s infinite;
            }
        </style></defs></svg>